<svg width="157" height="70" viewBox="0 0 157 70" fill="none" xmlns="http://www.w3.org/2000/svg">
<path d="M35.8529 9.4521C38.463 9.4521 40.5789 7.33618 40.5789 4.72605C40.5789 2.11593 38.463 0 35.8529 0C33.2427 0 31.1268 2.11593 31.1268 4.72605C31.1268 7.33618 33.2427 9.4521 35.8529 9.4521Z" fill="#03EB8F"/>
<path d="M40.7192 14.5246C41.6302 14.5246 42.3688 13.786 42.3688 12.875C42.3688 11.9639 41.6302 11.2254 40.7192 11.2254C39.8082 11.2254 39.0696 11.9639 39.0696 12.875C39.0696 13.786 39.8082 14.5246 40.7192 14.5246Z" fill="#03EB8F"/>
<path d="M67.7971 41.0829C68.0198 40.72 68.3497 40.4726 68.7786 40.3406C69.2075 40.2086 69.7436 40.1344 70.3869 40.1344C71.0303 40.1344 71.5416 40.1921 71.921 40.2994C72.3004 40.4148 72.5974 40.5468 72.8036 40.7035C73.0098 40.8602 73.15 41.0994 73.2407 41.4128C73.3727 41.7922 73.4469 42.3778 73.4469 43.1696V53.3723C73.4469 56.3498 72.5231 59.0469 70.6756 61.48C69.7766 62.6264 68.6136 63.5585 67.195 64.2678C65.7764 64.9771 64.2093 65.3318 62.4854 65.3318C60.7616 65.3318 59.1945 64.9689 57.7924 64.2513C56.382 63.5337 55.2438 62.5852 54.3613 61.414C52.5385 59.0304 51.6229 56.325 51.6229 53.3063V43.1449C51.6229 42.6005 51.6394 42.2046 51.6724 41.9489C51.7054 41.6933 51.8126 41.3881 51.9941 41.0499C52.1756 40.7118 52.4807 40.4726 52.9096 40.3406C53.3385 40.2086 53.9159 40.1344 54.6334 40.1344C55.351 40.1344 55.9284 40.2004 56.3572 40.3406C56.7861 40.4726 57.0748 40.7118 57.2398 41.0499C57.512 41.5695 57.6439 42.2789 57.6439 43.1779V53.3146C57.6439 54.692 57.9821 55.9951 58.6584 57.2323C58.9966 57.8592 59.4997 58.3705 60.176 58.7499C60.8524 59.1293 61.6524 59.3273 62.5762 59.3273C64.2175 59.3273 65.4464 58.7169 66.263 57.5045C67.0713 56.2921 67.4754 54.8817 67.4754 53.2816V42.9387C67.4589 42.0562 67.5661 41.4376 67.7971 41.0829Z" fill="#03EB8F"/>
<path d="M86.0002 47.1946C88.2519 47.1946 90.1241 48.0523 91.6252 49.7597C93.1264 51.4752 93.8687 53.5702 93.8687 56.0446V61.9913C93.8687 62.5109 93.8522 62.8986 93.8192 63.1543C93.7862 63.41 93.679 63.7151 93.4975 64.0533C93.2006 64.6389 92.3346 64.9358 90.8994 64.9358C89.522 64.9358 88.6725 64.6471 88.3343 64.0533C88.1529 63.7151 88.0457 63.41 88.0127 63.1378C87.9797 62.8656 87.9632 62.4614 87.9632 61.9253V56.0116C87.9632 55.0878 87.7075 54.3702 87.1879 53.8506C86.6683 53.331 86.0084 53.0753 85.2084 53.0753C84.4083 53.0753 83.7073 53.3145 83.0969 53.8011C82.4866 54.2878 82.1402 54.8321 82.0494 55.4425V61.9996C82.0494 62.5192 82.0329 62.9068 81.9999 63.1625C81.9669 63.4182 81.8597 63.7234 81.6783 64.0615C81.3896 64.6471 80.5153 64.9441 79.0802 64.9441C77.6615 64.9441 76.7955 64.6389 76.4821 64.0285C76.3254 63.6904 76.2264 63.4017 76.1934 63.146C76.1604 62.8986 76.1439 62.5027 76.1439 61.9666V41.7592C76.1439 41.2396 76.1604 40.8519 76.1934 40.5962C76.2264 40.3406 76.3254 40.0519 76.4821 39.7385C76.7955 39.1281 77.678 38.8229 79.1214 38.8229C80.5401 38.8229 81.3978 39.1281 81.6865 39.7385C81.868 40.0766 81.9752 40.3735 82.0082 40.6375C82.0412 40.8932 82.0577 41.2891 82.0577 41.8004V49.2648C83.1794 47.8791 84.4908 47.1946 86.0002 47.1946Z" fill="#03EB8F"/>
<path d="M96.5823 41.7179C96.5823 41.1982 96.5988 40.8106 96.6318 40.5549C96.6648 40.2992 96.7637 39.994 96.9205 39.6559C97.2339 39.0455 98.1164 38.7404 99.5598 38.7404C100.937 38.7404 101.787 39.0455 102.125 39.6559C102.306 39.994 102.414 40.2992 102.447 40.5714C102.48 40.8436 102.496 41.2395 102.496 41.7508V57.3971C102.496 58.2054 102.562 58.7168 102.702 58.9312C102.834 59.1457 103.139 59.2529 103.601 59.2529C104.063 59.2529 104.368 59.2694 104.533 59.3024C104.69 59.3354 104.88 59.4344 105.111 59.5911C105.564 59.888 105.787 60.6798 105.787 61.9912C105.787 63.4099 105.564 64.2759 105.111 64.5893C104.525 64.9934 103.131 65.0594 100.921 64.7955C99.1886 64.5728 98.0587 63.9955 97.5391 63.0717C96.904 61.9665 96.5905 60.2097 96.5905 57.8013V41.7179H96.5823Z" fill="#15839E"/>
<path d="M119.182 49.0174C119.314 47.7554 120.204 47.1286 121.854 47.1286C122.736 47.1286 123.388 47.1946 123.817 47.3348C124.246 47.4668 124.543 47.706 124.716 48.0441C124.881 48.3823 124.988 48.6792 125.021 48.9431C125.054 49.1988 125.071 49.5947 125.071 50.1061V61.9336C125.071 62.4532 125.054 62.8409 125.021 63.0966C124.988 63.3522 124.889 63.6574 124.732 63.9956C124.419 64.5812 123.644 64.8781 122.415 64.8781C121.186 64.8781 120.361 64.7296 119.949 64.4245C119.528 64.1193 119.289 63.6739 119.223 63.0883C118.39 64.2842 116.996 64.8781 115.049 64.8781C113.103 64.8781 111.297 63.9873 109.631 62.2058C107.964 60.4242 107.131 58.3623 107.131 56.0034C107.131 53.6527 107.973 51.5907 109.647 49.8174C111.321 48.0524 113.169 47.1616 115.173 47.1616C115.94 47.1616 116.641 47.2936 117.268 47.5657C117.895 47.8379 118.34 48.0854 118.588 48.3245C118.819 48.5637 119.025 48.7947 119.182 49.0174ZM113.029 56.0446C113.029 56.7869 113.317 57.455 113.911 58.0571C114.497 58.6509 115.206 58.9561 116.039 58.9561C116.872 58.9561 117.565 58.6509 118.118 58.0406C118.67 57.4302 118.942 56.7622 118.942 56.0281C118.942 55.294 118.678 54.6177 118.151 53.9826C117.623 53.3558 116.913 53.0341 116.023 53.0341C115.132 53.0341 114.414 53.3475 113.862 53.9826C113.309 54.6177 113.029 55.3023 113.029 56.0446Z" fill="#15839E"/>
<path d="M127.759 41.7179C127.759 41.1982 127.776 40.8106 127.809 40.5549C127.842 40.2992 127.941 39.994 128.098 39.6559C128.411 39.0455 129.294 38.7404 130.737 38.7404C132.106 38.7404 132.964 39.0455 133.302 39.6559C133.483 39.994 133.591 40.2992 133.624 40.5714C133.657 40.8436 133.673 41.2395 133.673 41.7508V57.3971C133.673 58.2054 133.739 58.7168 133.879 58.9312C134.011 59.1457 134.316 59.2529 134.77 59.2529C135.232 59.2529 135.545 59.2694 135.702 59.3024C135.859 59.3354 136.049 59.4344 136.279 59.5911C136.733 59.888 136.956 60.6798 136.956 61.9912C136.956 63.4099 136.733 64.2759 136.279 64.5893C135.694 64.9934 134.3 65.0594 132.09 64.7955C130.357 64.5728 129.228 63.9955 128.708 63.0717C128.081 61.9665 127.759 60.2097 127.759 57.8013V41.7179Z" fill="#15839E"/>
<path d="M150.367 49.0174C150.499 47.7554 151.39 47.1286 153.039 47.1286C153.922 47.1286 154.573 47.1946 155.002 47.3348C155.431 47.4668 155.728 47.706 155.893 48.0441C156.066 48.3823 156.165 48.6792 156.198 48.9431C156.231 49.1988 156.248 49.5947 156.248 50.1061V61.9336C156.248 62.4532 156.231 62.8409 156.198 63.0966C156.165 63.3522 156.066 63.6574 155.91 63.9956C155.596 64.5812 154.821 64.8781 153.592 64.8781C152.363 64.8781 151.546 64.7296 151.126 64.4245C150.713 64.1193 150.466 63.6739 150.4 63.0883C149.567 64.2842 148.173 64.8781 146.227 64.8781C144.28 64.8781 142.474 63.9873 140.808 62.2058C139.142 60.4242 138.309 58.3623 138.309 56.0034C138.309 53.6527 139.15 51.5907 140.824 49.8174C142.498 48.0524 144.346 47.1616 146.35 47.1616C147.117 47.1616 147.81 47.2936 148.445 47.5657C149.072 47.8379 149.517 48.0854 149.765 48.3245C150.004 48.5637 150.21 48.7947 150.367 49.0174ZM144.214 56.0446C144.214 56.7869 144.503 57.455 145.097 58.0571C145.682 58.6509 146.391 58.9561 147.225 58.9561C148.058 58.9561 148.75 58.6509 149.303 58.0406C149.856 57.4302 150.128 56.7622 150.128 56.0281C150.128 55.294 149.864 54.6177 149.336 53.9826C148.808 53.3558 148.099 53.0341 147.208 53.0341C146.317 53.0341 145.6 53.3475 145.047 53.9826C144.494 54.6177 144.214 55.3023 144.214 56.0446Z" fill="#15839E"/>
<path d="M27.4565 39.9611C28.4996 39.9611 29.3453 39.1154 29.3453 38.0723C29.3453 37.0292 28.4996 36.1835 27.4565 36.1835C26.4133 36.1835 25.5677 37.0292 25.5677 38.0723C25.5677 39.1154 26.4133 39.9611 27.4565 39.9611Z" fill="#00E281"/>
<path d="M2.31693 58.09C6.02024 65.4389 13.4351 70 21.6665 70C25.0647 70 28.3391 69.2165 31.3991 67.6741C42.0636 62.3047 46.3608 49.2565 40.9914 38.592C39.6305 35.8867 37.7499 33.5443 35.4158 31.6225L35.358 31.573L35.3828 31.507L39.0531 21.3374L41.6512 22.2776L42.8389 18.9867L40.612 18.1867L24.0832 12.1987L22.8955 15.4896L25.2214 16.3309L21.4851 26.6902H21.4108C18.0869 26.7232 14.8867 27.5068 11.901 29.0079C1.2447 34.3855 -3.06071 47.4337 2.31693 58.09ZM21.4438 29.8162L23.6873 29.7915L28.2813 17.0402L36.2241 19.9187L31.6547 32.5875L33.4198 34.0391C35.4158 35.6805 37.0159 37.6847 38.1871 40.0024C40.414 44.415 40.7852 49.438 39.2346 54.1393C37.684 58.8406 34.4013 62.6594 29.9887 64.8863C27.3741 66.206 24.5698 66.8741 21.6665 66.8741C14.6228 66.8741 8.28017 62.9728 5.11297 56.6879C2.88603 52.267 2.51488 47.2523 4.05724 42.551C5.60784 37.8497 8.89051 34.0391 13.3114 31.8122C15.8682 30.5173 18.5983 29.8492 21.4438 29.8162Z" fill="#15839E"/>
<path d="M36.653 42.7159C34.9622 43.9778 31.9764 44.5964 27.3741 44.4149C24.4543 44.2995 21.9717 44.6706 20.2561 45.05C18.3756 45.4707 16.5693 46.213 15.0187 47.3595C10.6803 50.5514 9.78954 55.1455 9.72356 58.0982C9.71531 58.4529 9.7483 58.7993 9.80604 59.1457C10.0947 58.9065 10.3916 58.6838 10.6968 58.4611C11.7938 57.6693 12.9402 57.0013 14.1032 56.3909C16.4374 55.1785 18.8622 54.2465 21.3201 53.4794C22.5573 53.0835 23.7697 52.7866 24.9657 52.3989C26.1616 52.0195 27.3493 51.6071 28.504 51.1205C29.6588 50.6339 30.797 50.106 31.8692 49.4462C32.9332 48.7863 33.9642 48.0358 34.723 47.013C34.0796 48.1183 33.1064 49.0008 32.1001 49.7843C31.0856 50.5679 29.9804 51.2442 28.8587 51.8628C27.7287 52.4814 26.574 53.034 25.3946 53.5536C24.2234 54.0815 23.0109 54.5351 21.8727 55.0053C19.5633 55.9703 17.3281 57.0837 15.2662 58.4034C14.2352 59.0632 13.2537 59.7808 12.3546 60.5644C12.0907 60.787 11.8433 61.0262 11.6041 61.2654C14.2187 62.981 17.3446 63.9872 20.7015 63.9872C27.5225 63.9872 33.3868 59.855 35.9437 53.9743C36.0014 53.8341 36.0674 53.6856 36.1169 53.5454C36.1581 53.4382 36.1911 53.3309 36.2323 53.232C36.389 52.7701 36.5375 52.3 36.6612 51.8216C36.8757 50.972 37.0489 50.139 37.1808 49.339C37.2056 49.1822 37.2221 49.0173 37.2468 48.8606C37.2881 48.3739 37.3211 47.8791 37.3211 47.3842C37.3293 45.7511 37.0901 44.1923 36.653 42.7159Z" fill="#03EB8F"/>
<path d="M151.167 43.7304L150.383 44.3737C149.789 44.6706 149.46 44.7614 148.503 43.7799C148.107 43.384 148.264 43.4582 148.099 43.12C147.934 42.7819 147.868 42.5014 147.892 42.2622C147.958 41.9076 148.222 41.5199 148.676 41.0993L152.371 36.7361C152.816 36.3402 153.072 36.1258 153.155 36.0928C153.748 35.7959 154.507 36.1505 155.439 37.132C155.835 37.5279 156.107 37.8908 156.272 38.2125C156.437 38.5342 156.503 38.8229 156.47 39.0538C156.404 39.4085 156.14 39.7961 155.687 40.2168L151.167 43.7304Z" fill="#15839E"/>
<path d="M29.5846 28.3398C30.6095 28.3398 31.4403 27.5089 31.4403 26.484C31.4403 25.4591 30.6095 24.6282 29.5846 24.6282C28.5596 24.6282 27.7288 25.4591 27.7288 26.484C27.7288 27.5089 28.5596 28.3398 29.5846 28.3398Z" fill="#00E281"/>
</svg>
